<?xml version="1.0" encoding="UTF-8" standalone="no"?>
<!DOCTYPE svg PUBLIC "-//W3C//DTD SVG 1.1//EN"
 "http://www.w3.org/Graphics/SVG/1.1/DTD/svg11.dtd">
<!-- Generated by graphviz version 7.0.1 (20221109.1506)
 -->
<!-- Pages: 1 -->
<svg width="644pt" height="589pt"
 viewBox="0.00 0.00 644.00 589.07" xmlns="http://www.w3.org/2000/svg" xmlns:xlink="http://www.w3.org/1999/xlink">
<g id="graph0" class="graph" transform="scale(1 1) rotate(0) translate(4 585.07)">
<polygon fill="white" stroke="none" points="-4,4 -4,-585.07 640,-585.07 640,4 -4,4"/>
<g id="clust1" class="cluster">
<title>cluster_0</title>
<polygon fill="none" stroke="black" points="8,-8 8,-573.07 628,-573.07 628,-8 8,-8"/>
<text text-anchor="middle" x="318" y="-557.87" font-family="Times,serif" font-size="14.00">artifactGraph</text>
</g>
<!-- first -->
<g id="node1" class="node">
<title>first</title>
<ellipse fill="none" stroke="green" cx="525" cy="-280.68" rx="94.78" ry="94.78"/>
<text text-anchor="middle" x="525" y="-276.98" font-family="Times,serif" font-size="14.00">Grupo de trabajo activo</text>
</g>
<!-- clock -->
<g id="node2" class="node">
<title>clock</title>
<ellipse fill="none" stroke="orange" cx="314" cy="-79.14" rx="59.28" ry="59.28"/>
<ellipse fill="none" stroke="orange" cx="314" cy="-79.14" rx="63.29" ry="63.29"/>
<text text-anchor="middle" x="314" y="-75.44" font-family="Times,serif" font-size="14.00">Viernes 6 pm</text>
</g>
<!-- first&#45;&gt;clock -->
<g id="edge3" class="edge">
<title>first&#45;&gt;clock</title>
<path fill="none" stroke="black" d="M457.22,-213.87C445.2,-202.3 432.76,-190.41 421,-179.29 404,-163.21 385.34,-145.83 368.42,-130.17"/>
<polygon fill="black" stroke="black" points="371.11,-127.89 361.39,-123.67 366.35,-133.03 371.11,-127.89"/>
</g>
<!-- last -->
<g id="node3" class="node">
<title>last</title>
<ellipse fill="none" stroke="red" cx="311" cy="-280.68" rx="101.28" ry="101.28"/>
<text text-anchor="middle" x="311" y="-276.98" font-family="Times,serif" font-size="14.00">Grupo de trabajo inactivo</text>
</g>
<!-- activity1 -->
<g id="node4" class="node">
<title>activity1</title>
<polygon fill="none" stroke="yellow" points="395.5,-542.07 166.5,-542.07 166.5,-506.07 395.5,-506.07 395.5,-542.07"/>
<text text-anchor="middle" x="281" y="-520.37" font-family="Times,serif" font-size="14.00">Verificar el estado del grupo de trabajo</text>
</g>
<!-- gate -->
<g id="node6" class="node">
<title>gate</title>
<polygon fill="gray" stroke="gray" points="281,-469.07 203.58,-451.07 281,-433.07 358.42,-451.07 281,-469.07"/>
<text text-anchor="middle" x="281" y="-447.37" font-family="Times,serif" font-size="14.00">gatewayInfo</text>
</g>
<!-- activity1&#45;&gt;gate -->
<g id="edge4" class="edge">
<title>activity1&#45;&gt;gate</title>
<path fill="none" stroke="black" d="M281,-505.88C281,-498.3 281,-489.17 281,-480.61"/>
<polygon fill="black" stroke="black" points="284.5,-480.61 281,-470.61 277.5,-480.61 284.5,-480.61"/>
</g>
<!-- activity2 -->
<g id="node5" class="node">
<title>activity2</title>
<polygon fill="none" stroke="yellow" points="192,-298.68 16,-298.68 16,-262.68 192,-262.68 192,-298.68"/>
<text text-anchor="middle" x="104" y="-276.98" font-family="Times,serif" font-size="14.00">Enviar lista actual de asuntos</text>
</g>
<!-- activity2&#45;&gt;clock -->
<g id="edge5" class="edge">
<title>activity2&#45;&gt;clock</title>
<path fill="none" stroke="black" d="M120.06,-262.21C138.96,-241.84 171.53,-207.38 201,-179.29 219.02,-162.11 239.3,-143.97 257.66,-127.97"/>
<polygon fill="black" stroke="black" points="259.54,-130.97 264.8,-121.77 254.95,-125.68 259.54,-130.97"/>
</g>
<!-- gate&#45;&gt;last -->
<g id="edge2" class="edge">
<title>gate&#45;&gt;last</title>
<path fill="none" stroke="black" d="M283.99,-433.31C285.86,-422.77 288.47,-408.15 291.32,-392.12"/>
<polygon fill="black" stroke="black" points="294.76,-392.79 293.07,-382.33 287.87,-391.56 294.76,-392.79"/>
<text text-anchor="middle" x="296" y="-403.87" font-family="Times,serif" font-size="14.00">no</text>
</g>
<!-- gate&#45;&gt;activity2 -->
<g id="edge1" class="edge">
<title>gate&#45;&gt;activity2</title>
<path fill="none" stroke="black" d="M264.35,-436.72C247.88,-423.33 222.14,-401.9 201,-382.07 174.86,-357.55 146.56,-327.86 127.31,-307.16"/>
<polygon fill="black" stroke="black" points="130.03,-304.95 120.67,-299.98 124.89,-309.7 130.03,-304.95"/>
<text text-anchor="middle" x="242" y="-403.87" font-family="Times,serif" font-size="14.00">si</text>
</g>
<!-- artifact1 -->
<g id="node7" class="node">
<title>artifact1</title>
<path fill="none" stroke="black" d="M156,-465.8C156,-467.6 132.69,-469.07 104,-469.07 75.31,-469.07 52,-467.6 52,-465.8 52,-465.8 52,-436.34 52,-436.34 52,-434.54 75.31,-433.07 104,-433.07 132.69,-433.07 156,-434.54 156,-436.34 156,-436.34 156,-465.8 156,-465.8"/>
<path fill="none" stroke="black" d="M156,-465.8C156,-463.99 132.69,-462.53 104,-462.53 75.31,-462.53 52,-463.99 52,-465.8"/>
<text text-anchor="middle" x="104" y="-447.37" font-family="Times,serif" font-size="14.00">Lista de asuntos</text>
</g>
<!-- artifact1&#45;&gt;activity2 -->
<g id="edge6" class="edge">
<title>artifact1&#45;&gt;activity2</title>
<path fill="none" stroke="black" stroke-dasharray="5,2" d="M104,-432.68C104,-403.67 104,-345.11 104,-310.05"/>
<polygon fill="black" stroke="black" points="107.5,-310.24 104,-300.24 100.5,-310.24 107.5,-310.24"/>
</g>
</g>
</svg>
